<?xml version="1.0" encoding="UTF-8" standalone="no"?>
<svg
   xmlns:dc="http://purl.org/dc/elements/1.1/"
   xmlns:cc="http://creativecommons.org/ns#"
   xmlns:rdf="http://www.w3.org/1999/02/22-rdf-syntax-ns#"
   xmlns:svg="http://www.w3.org/2000/svg"
   xmlns="http://www.w3.org/2000/svg"
   xmlns:xlink="http://www.w3.org/1999/xlink"
   id="svg8"
   version="1.1"
   viewBox="0 0 135.46666 135.46667"
   height="512"
   width="512">
  <defs
     id="defs2">
    <linearGradient
       id="linearGradient4631">
      <stop
         id="stop4627"
         offset="0"
         style="stop-color:#ffe990;stop-opacity:1" />
      <stop
         id="stop4629"
         offset="1"
         style="stop-color:#ffcc00;stop-opacity:1" />
    </linearGradient>
    <linearGradient
       id="linearGradient4621">
      <stop
         id="stop4617"
         offset="0"
         style="stop-color:#ff8c00;stop-opacity:1" />
      <stop
         style="stop-color:#ffc800;stop-opacity:1"
         offset="0.51213038"
         id="stop4625" />
      <stop
         id="stop4619"
         offset="1"
         style="stop-color:#ff8a00;stop-opacity:1" />
    </linearGradient>
    <linearGradient
       id="linearGradient4613">
      <stop
         id="stop4609"
         offset="0"
         style="stop-color:#ffcc00;stop-opacity:1;" />
      <stop
         id="stop4611"
         offset="1"
         style="stop-color:#fffbeb;stop-opacity:1" />
    </linearGradient>
    <linearGradient
       id="linearGradient4595">
      <stop
         id="stop4591"
         offset="0"
         style="stop-color:#ffcc00;stop-opacity:1;" />
      <stop
         style="stop-color:#ff9200;stop-opacity:1"
         offset="0.11045698"
         id="stop4605" />
      <stop
         style="stop-color:#ffef00;stop-opacity:1"
         offset="0.20756729"
         id="stop4603" />
      <stop
         id="stop4607"
         offset="0.47462061"
         style="stop-color:#fff895;stop-opacity:1" />
      <stop
         style="stop-color:#ffe900;stop-opacity:1"
         offset="0.79685026"
         id="stop4601" />
      <stop
         style="stop-color:#ff8500;stop-opacity:1"
         offset="0.87189007"
         id="stop4599" />
      <stop
         id="stop4593"
         offset="1"
         style="stop-color:#ffcc00;stop-opacity:1" />
    </linearGradient>
    <linearGradient
       gradientTransform="matrix(0.25667002,0,0,0.25667002,-100.83369,50.449238)"
       gradientUnits="userSpaceOnUse"
       y2="1563.5654"
       x2="2202.4976"
       y1="1110.4724"
       x1="2202.4976"
       id="linearGradient4597"
       xlink:href="#linearGradient4595" />
    <linearGradient
       gradientTransform="matrix(0.97009144,0,0,0.97009144,-100.83369,50.449235)"
       gradientUnits="userSpaceOnUse"
       y2="353.75293"
       x2="632.36719"
       y1="353.75293"
       x1="533.12305"
       id="linearGradient4615"
       xlink:href="#linearGradient4613" />
    <linearGradient
       gradientTransform="matrix(0.97009144,0,0,0.97009144,-100.83369,50.449235)"
       gradientUnits="userSpaceOnUse"
       y2="410.81497"
       x2="583.91687"
       y1="295.75543"
       x1="583.91687"
       id="linearGradient4623"
       xlink:href="#linearGradient4621" />
    <linearGradient
       gradientTransform="matrix(0.93457152,-0.26010282,0.26010282,0.93457152,-83.615108,75.637759)"
       gradientUnits="userSpaceOnUse"
       y2="352.25641"
       x2="621.72144"
       y1="352.25641"
       x1="542.39587"
       id="linearGradient4633"
       xlink:href="#linearGradient4631" />
  </defs>
  <metadata
     id="metadata5">
    <rdf:RDF>
      <cc:Work
         rdf:about="">
        <dc:format>image/svg+xml</dc:format>
        <dc:type
           rdf:resource="http://purl.org/dc/dcmitype/StillImage" />
        <dc:title></dc:title>
      </cc:Work>
    </rdf:RDF>
  </metadata>
  <g
     transform="translate(0,-161.53331)"
     id="layer1">
    <g
       style="stroke-width:0.97009146"
       transform="matrix(1.0308307,0,0,1.0308307,-526.17219,-139.68141)"
       id="g4662">
      <path
         id="path4640"
         d="m 596.75216,301.50997 c -0.44099,-0.12014 -0.88404,-0.23048 -1.3279,-0.33554 l -7.7711,-2.11505 -0.28811,1.05752 c -10.41615,-0.33843 -21.05905,3.15803 -29.96008,9.67967 -11.5914,8.49285 -20.28691,21.82807 -24.28503,36.50387 -3.99773,14.67566 -3.26625,30.57934 2.41573,43.77757 4.36314,10.13478 11.76098,18.5449 20.90885,23.536 l -0.28784,1.05651 7.65838,2.0864 5.3e-4,-0.002 c 0.47226,0.14794 0.94677,0.29006 1.42529,0.42043 13.16691,3.58743 27.73745,0.21958 39.34633,-8.28532 11.59178,-8.49236 20.28828,-21.82701 24.28691,-36.50285 3.99841,-14.67632 3.2673,-30.58112 -2.41506,-43.78005 -5.49702,-12.76847 -15.80763,-22.80449 -28.3711,-26.70602 l 5.3e-4,-0.002 -0.0369,-0.01 c -0.43067,-0.13329 -0.86361,-0.26047 -1.29944,-0.3792 z"
         style="opacity:0.25500039;fill:#000000;fill-opacity:1;stroke:none;stroke-width:0.25667;stroke-miterlimit:4;stroke-dasharray:none;stroke-opacity:1" />
      <path
         style="opacity:1;fill:url(#linearGradient4597);fill-opacity:1;stroke:none;stroke-width:0.25667;stroke-miterlimit:4;stroke-dasharray:none;stroke-opacity:1"
         d="m 595.03698,300.83855 c -0.44033,-0.12255 -0.88263,-0.23576 -1.32607,-0.34269 l -7.75961,-2.15685 -0.29388,1.05593 c -10.41415,-0.39533 -21.07599,3.04293 -30.01252,9.51583 -11.63763,8.4294 -20.40585,21.71692 -24.48411,36.37065 -4.07825,14.65349 -3.43326,30.56104 2.17652,43.79011 4.30771,10.15848 11.65949,18.60888 20.77995,23.6499 l -0.29359,1.05491 7.64686,2.12821 7.1e-4,-0.003 c 0.47146,0.15043 0.94518,0.29521 1.42298,0.42822 13.14718,3.65902 27.73582,0.37111 39.39101,-8.07024 11.63801,-8.42891 20.40723,-21.71585 24.48596,-36.36961 4.07855,-14.65426 3.43433,-30.56283 -2.17583,-43.79259 -5.42718,-12.79832 -15.68279,-22.89053 -28.22477,-26.86064 l 7.1e-4,-0.003 -0.0368,-0.0102 c -0.42995,-0.13559 -0.86216,-0.26521 -1.29734,-0.38633 z"
         id="path4570" />
      <path
         style="opacity:1;fill:url(#linearGradient4615);fill-opacity:1;stroke:none;stroke-width:0.25667;stroke-miterlimit:4;stroke-dasharray:none;stroke-opacity:1"
         d="m 587.39001,298.71024 c -13.14725,-3.65846 -27.73681,-0.3702 -39.39168,8.07166 -11.63763,8.4294 -20.40588,21.71674 -24.48414,36.37049 -4.07785,14.65358 -3.43338,30.56138 2.1764,43.79044 5.61808,13.24863 16.41019,23.59943 29.55673,27.25883 13.1471,3.6593 27.73596,0.37158 39.39115,-8.06978 11.638,-8.42889 20.4073,-21.7162 24.48603,-36.36995 4.07853,-14.65428 3.43428,-30.56259 -2.17587,-43.79233 -5.61844,-13.24931 -16.41113,-23.60053 -29.55862,-27.25936 z"
         id="path4567" />
      <path
         style="opacity:1;fill:url(#linearGradient4623);fill-opacity:1;stroke:none;stroke-width:0.25667;stroke-miterlimit:4;stroke-dasharray:none;stroke-opacity:1"
         d="m 586.8899,300.50718 c -12.52281,-3.48471 -26.55621,-0.3569 -37.79758,7.78547 -11.24139,8.14237 -19.81063,21.09304 -23.7812,35.35985 -3.97014,14.26655 -3.32215,29.78334 2.09662,42.56196 5.41878,12.77862 15.81747,22.70463 28.33969,26.19026 12.52267,3.48549 26.55534,0.35832 37.79706,-7.78359 11.24173,-8.14189 19.81204,-21.09254 23.78307,-35.35932 3.97081,-14.26722 3.32304,-29.78455 -2.09609,-42.56384 -5.41913,-12.7793 -15.81845,-22.70572 -28.34157,-26.19079 z"
         id="path4564" />
      <ellipse
         style="opacity:1;fill:url(#linearGradient4633);fill-opacity:1;stroke:none;stroke-width:0.25667;stroke-miterlimit:4;stroke-dasharray:none;stroke-opacity:1"
         id="path4558"
         cx="645.97418"
         cy="190.22141"
         rx="40.348957"
         ry="50.667709"
         transform="rotate(15.552543)" />
      <path
         style="opacity:1;fill:#ff8c00;fill-opacity:1;stroke:none;stroke-width:0.25667;stroke-miterlimit:4;stroke-dasharray:none;stroke-opacity:1"
         d="m 584.90438,307.64375 a 40.348958,50.667708 15.552543 0 0 -8.38575,-1.12319 39.881236,50.080373 15.552543 0 1 5.73849,0.99632 39.881236,50.080373 15.552543 0 1 24.99344,58.93951 39.881236,50.080373 15.552543 0 1 -51.84861,37.55342 39.881236,50.080373 15.552543 0 1 -5.80923,-2.31679 40.348958,50.667708 15.552543 0 0 8.14141,3.57575 40.348958,50.667708 15.552543 0 0 52.45671,-37.99407 40.348958,50.667708 15.552543 0 0 -25.28646,-59.63095 z"
         id="ellipse4635" />
    </g>
  </g>
</svg>
